G75*
%MOIN*%
%OFA0B0*%
%FSLAX25Y25*%
%IPPOS*%
%LPD*%
%AMOC8*
5,1,8,0,0,1.08239X$1,22.5*
%
%ADD10C,0.00300*%
%ADD11C,0.00400*%
%ADD12C,0.01000*%
%ADD13C,0.00500*%
%ADD14C,0.00600*%
%ADD15C,0.00800*%
D10*
X0010467Y0035150D02*
X0012936Y0035150D01*
X0011701Y0035150D02*
X0011701Y0038853D01*
X0010467Y0037619D01*
X0007850Y0038718D02*
X0007850Y0039952D01*
X0007233Y0040569D01*
X0007850Y0041784D02*
X0004147Y0041784D01*
X0007850Y0044252D01*
X0004147Y0044252D01*
X0005381Y0045467D02*
X0004147Y0046701D01*
X0007850Y0046701D01*
X0007850Y0045467D02*
X0007850Y0047936D01*
X0010467Y0047650D02*
X0012936Y0050119D01*
X0012936Y0050736D01*
X0012318Y0051353D01*
X0011084Y0051353D01*
X0010467Y0050736D01*
X0010467Y0047650D02*
X0012936Y0047650D01*
X0004764Y0040569D02*
X0004147Y0039952D01*
X0004147Y0038718D01*
X0004764Y0038101D01*
X0007233Y0038101D01*
X0007850Y0038718D01*
X0010467Y0060150D02*
X0012936Y0060150D01*
X0011701Y0060150D02*
X0011701Y0063853D01*
X0010467Y0062619D01*
X0007850Y0063718D02*
X0007850Y0064952D01*
X0007233Y0065569D01*
X0004764Y0065569D02*
X0004147Y0064952D01*
X0004147Y0063718D01*
X0004764Y0063101D01*
X0007233Y0063101D01*
X0007850Y0063718D01*
X0007850Y0066784D02*
X0004147Y0066784D01*
X0007850Y0069252D01*
X0004147Y0069252D01*
X0004764Y0070467D02*
X0004147Y0071084D01*
X0004147Y0072318D01*
X0004764Y0072936D01*
X0005381Y0072936D01*
X0007850Y0070467D01*
X0007850Y0072936D01*
X0010467Y0072650D02*
X0012936Y0075119D01*
X0012936Y0075736D01*
X0012318Y0076353D01*
X0011084Y0076353D01*
X0010467Y0075736D01*
X0010467Y0072650D02*
X0012936Y0072650D01*
X0126784Y0072650D02*
X0129252Y0075119D01*
X0129252Y0075736D01*
X0128635Y0076353D01*
X0127401Y0076353D01*
X0126784Y0075736D01*
X0130467Y0074502D02*
X0132318Y0074502D01*
X0132936Y0073884D01*
X0132936Y0073267D01*
X0132318Y0072650D01*
X0131084Y0072650D01*
X0130467Y0073267D01*
X0130467Y0074502D01*
X0131701Y0075736D01*
X0132936Y0076353D01*
X0129252Y0072650D02*
X0126784Y0072650D01*
X0127401Y0063853D02*
X0126784Y0063236D01*
X0127401Y0063853D02*
X0128635Y0063853D01*
X0129252Y0063236D01*
X0129252Y0062619D01*
X0126784Y0060150D01*
X0129252Y0060150D01*
X0130467Y0060767D02*
X0131084Y0060150D01*
X0132318Y0060150D01*
X0132936Y0060767D01*
X0132936Y0062002D01*
X0132318Y0062619D01*
X0131701Y0062619D01*
X0130467Y0062002D01*
X0130467Y0063853D01*
X0132936Y0063853D01*
X0132936Y0051353D02*
X0131701Y0050736D01*
X0130467Y0049502D01*
X0132318Y0049502D01*
X0132936Y0048884D01*
X0132936Y0048267D01*
X0132318Y0047650D01*
X0131084Y0047650D01*
X0130467Y0048267D01*
X0130467Y0049502D01*
X0129252Y0050119D02*
X0129252Y0050736D01*
X0128635Y0051353D01*
X0127401Y0051353D01*
X0126784Y0050736D01*
X0129252Y0050119D02*
X0126784Y0047650D01*
X0129252Y0047650D01*
X0128635Y0038853D02*
X0127401Y0038853D01*
X0126784Y0038236D01*
X0128635Y0038853D02*
X0129252Y0038236D01*
X0129252Y0037619D01*
X0126784Y0035150D01*
X0129252Y0035150D01*
X0130467Y0035767D02*
X0131084Y0035150D01*
X0132318Y0035150D01*
X0132936Y0035767D01*
X0132936Y0037002D01*
X0132318Y0037619D01*
X0131701Y0037619D01*
X0130467Y0037002D01*
X0130467Y0038853D01*
X0132936Y0038853D01*
X0175150Y0050267D02*
X0175767Y0049650D01*
X0177002Y0049650D01*
X0177619Y0050267D01*
X0177619Y0051502D01*
X0176384Y0051502D01*
X0175150Y0052736D02*
X0175150Y0050267D01*
X0178833Y0049650D02*
X0178833Y0053353D01*
X0181302Y0049650D01*
X0181302Y0053353D01*
X0182516Y0053353D02*
X0184368Y0053353D01*
X0184985Y0052736D01*
X0184985Y0050267D01*
X0184368Y0049650D01*
X0182516Y0049650D01*
X0182516Y0053353D01*
X0177619Y0052736D02*
X0177002Y0053353D01*
X0175767Y0053353D01*
X0175150Y0052736D01*
X0175767Y0059650D02*
X0177002Y0059650D01*
X0177619Y0060267D01*
X0177619Y0061502D01*
X0176384Y0061502D01*
X0175150Y0062736D02*
X0175150Y0060267D01*
X0175767Y0059650D01*
X0178833Y0059650D02*
X0178833Y0063353D01*
X0181302Y0059650D01*
X0181302Y0063353D01*
X0182516Y0063353D02*
X0184368Y0063353D01*
X0184985Y0062736D01*
X0184985Y0060267D01*
X0184368Y0059650D01*
X0182516Y0059650D01*
X0182516Y0063353D01*
X0177619Y0062736D02*
X0177002Y0063353D01*
X0175767Y0063353D01*
X0175150Y0062736D01*
X0179450Y0069650D02*
X0178833Y0070267D01*
X0179450Y0069650D02*
X0180685Y0069650D01*
X0181302Y0070267D01*
X0181302Y0071502D01*
X0180685Y0072119D01*
X0180068Y0072119D01*
X0178833Y0071502D01*
X0178833Y0073353D01*
X0181302Y0073353D01*
X0182516Y0073353D02*
X0182516Y0070884D01*
X0183751Y0069650D01*
X0184985Y0070884D01*
X0184985Y0073353D01*
X0177619Y0071502D02*
X0175150Y0071502D01*
X0176384Y0072736D02*
X0176384Y0070267D01*
X0168327Y0079150D02*
X0165858Y0079150D01*
X0164633Y0079150D02*
X0164016Y0079150D01*
X0164016Y0079767D01*
X0164633Y0079767D01*
X0164633Y0079150D01*
X0162802Y0079150D02*
X0160333Y0079150D01*
X0161568Y0079150D02*
X0161568Y0082853D01*
X0160333Y0081619D01*
X0159119Y0081619D02*
X0157884Y0079150D01*
X0156650Y0081619D01*
X0165858Y0081619D02*
X0167092Y0082853D01*
X0167092Y0079150D01*
D11*
X0167408Y0033804D02*
X0169710Y0033804D01*
X0170477Y0033037D01*
X0170477Y0031502D01*
X0169710Y0030735D01*
X0167408Y0030735D01*
X0168942Y0030735D02*
X0170477Y0029200D01*
X0167408Y0029200D02*
X0167408Y0033804D01*
X0165873Y0033804D02*
X0165873Y0029200D01*
X0164339Y0030735D01*
X0162804Y0029200D01*
X0162804Y0033804D01*
X0161269Y0033037D02*
X0161269Y0031502D01*
X0160502Y0030735D01*
X0158200Y0030735D01*
X0158200Y0029200D02*
X0158200Y0033804D01*
X0160502Y0033804D01*
X0161269Y0033037D01*
D12*
X0155000Y0036500D02*
X0155000Y0076500D01*
X0173000Y0076500D01*
X0173000Y0036500D01*
X0155000Y0036500D01*
X0180910Y0036500D02*
X0180912Y0036649D01*
X0180918Y0036799D01*
X0180928Y0036948D01*
X0180942Y0037097D01*
X0180960Y0037245D01*
X0180982Y0037393D01*
X0181008Y0037540D01*
X0181037Y0037687D01*
X0181071Y0037832D01*
X0181109Y0037977D01*
X0181150Y0038120D01*
X0181195Y0038263D01*
X0181244Y0038404D01*
X0181297Y0038544D01*
X0181354Y0038682D01*
X0181414Y0038819D01*
X0181478Y0038954D01*
X0181545Y0039088D01*
X0181616Y0039219D01*
X0181690Y0039349D01*
X0181768Y0039476D01*
X0181849Y0039602D01*
X0181934Y0039725D01*
X0182022Y0039846D01*
X0182113Y0039964D01*
X0182207Y0040080D01*
X0182304Y0040194D01*
X0182405Y0040305D01*
X0182508Y0040413D01*
X0182614Y0040518D01*
X0182723Y0040621D01*
X0182834Y0040720D01*
X0182948Y0040817D01*
X0183065Y0040910D01*
X0183184Y0041000D01*
X0183306Y0041087D01*
X0183429Y0041171D01*
X0183555Y0041252D01*
X0183683Y0041329D01*
X0183814Y0041402D01*
X0183946Y0041472D01*
X0184079Y0041539D01*
X0184215Y0041602D01*
X0184352Y0041661D01*
X0184491Y0041716D01*
X0184631Y0041768D01*
X0184773Y0041816D01*
X0184915Y0041861D01*
X0185059Y0041901D01*
X0185204Y0041938D01*
X0185350Y0041970D01*
X0185497Y0041999D01*
X0185644Y0042024D01*
X0185792Y0042045D01*
X0185940Y0042062D01*
X0186089Y0042075D01*
X0186239Y0042084D01*
X0186388Y0042089D01*
X0186537Y0042090D01*
X0186687Y0042087D01*
X0186836Y0042080D01*
X0186985Y0042069D01*
X0187134Y0042054D01*
X0187282Y0042035D01*
X0187430Y0042012D01*
X0187577Y0041985D01*
X0187723Y0041955D01*
X0187868Y0041920D01*
X0188013Y0041881D01*
X0188156Y0041839D01*
X0188298Y0041793D01*
X0188439Y0041743D01*
X0188579Y0041689D01*
X0188717Y0041632D01*
X0188853Y0041571D01*
X0188988Y0041506D01*
X0189121Y0041438D01*
X0189252Y0041366D01*
X0189381Y0041290D01*
X0189508Y0041212D01*
X0189633Y0041130D01*
X0189755Y0041044D01*
X0189876Y0040956D01*
X0189994Y0040864D01*
X0190109Y0040769D01*
X0190222Y0040671D01*
X0190332Y0040570D01*
X0190439Y0040466D01*
X0190544Y0040359D01*
X0190646Y0040250D01*
X0190745Y0040138D01*
X0190840Y0040023D01*
X0190933Y0039905D01*
X0191022Y0039786D01*
X0191109Y0039664D01*
X0191192Y0039539D01*
X0191271Y0039413D01*
X0191347Y0039284D01*
X0191420Y0039154D01*
X0191489Y0039021D01*
X0191555Y0038887D01*
X0191617Y0038751D01*
X0191675Y0038613D01*
X0191730Y0038474D01*
X0191781Y0038334D01*
X0191828Y0038192D01*
X0191871Y0038049D01*
X0191911Y0037905D01*
X0191946Y0037759D01*
X0191978Y0037613D01*
X0192006Y0037467D01*
X0192030Y0037319D01*
X0192050Y0037171D01*
X0192066Y0037022D01*
X0192078Y0036873D01*
X0192086Y0036724D01*
X0192090Y0036575D01*
X0192090Y0036425D01*
X0192086Y0036276D01*
X0192078Y0036127D01*
X0192066Y0035978D01*
X0192050Y0035829D01*
X0192030Y0035681D01*
X0192006Y0035533D01*
X0191978Y0035387D01*
X0191946Y0035241D01*
X0191911Y0035095D01*
X0191871Y0034951D01*
X0191828Y0034808D01*
X0191781Y0034666D01*
X0191730Y0034526D01*
X0191675Y0034387D01*
X0191617Y0034249D01*
X0191555Y0034113D01*
X0191489Y0033979D01*
X0191420Y0033846D01*
X0191347Y0033716D01*
X0191271Y0033587D01*
X0191192Y0033461D01*
X0191109Y0033336D01*
X0191022Y0033214D01*
X0190933Y0033095D01*
X0190840Y0032977D01*
X0190745Y0032862D01*
X0190646Y0032750D01*
X0190544Y0032641D01*
X0190439Y0032534D01*
X0190332Y0032430D01*
X0190222Y0032329D01*
X0190109Y0032231D01*
X0189994Y0032136D01*
X0189876Y0032044D01*
X0189755Y0031956D01*
X0189633Y0031870D01*
X0189508Y0031788D01*
X0189381Y0031710D01*
X0189252Y0031634D01*
X0189121Y0031562D01*
X0188988Y0031494D01*
X0188853Y0031429D01*
X0188717Y0031368D01*
X0188579Y0031311D01*
X0188439Y0031257D01*
X0188298Y0031207D01*
X0188156Y0031161D01*
X0188013Y0031119D01*
X0187868Y0031080D01*
X0187723Y0031045D01*
X0187577Y0031015D01*
X0187430Y0030988D01*
X0187282Y0030965D01*
X0187134Y0030946D01*
X0186985Y0030931D01*
X0186836Y0030920D01*
X0186687Y0030913D01*
X0186537Y0030910D01*
X0186388Y0030911D01*
X0186239Y0030916D01*
X0186089Y0030925D01*
X0185940Y0030938D01*
X0185792Y0030955D01*
X0185644Y0030976D01*
X0185497Y0031001D01*
X0185350Y0031030D01*
X0185204Y0031062D01*
X0185059Y0031099D01*
X0184915Y0031139D01*
X0184773Y0031184D01*
X0184631Y0031232D01*
X0184491Y0031284D01*
X0184352Y0031339D01*
X0184215Y0031398D01*
X0184079Y0031461D01*
X0183946Y0031528D01*
X0183814Y0031598D01*
X0183683Y0031671D01*
X0183555Y0031748D01*
X0183429Y0031829D01*
X0183306Y0031913D01*
X0183184Y0032000D01*
X0183065Y0032090D01*
X0182948Y0032183D01*
X0182834Y0032280D01*
X0182723Y0032379D01*
X0182614Y0032482D01*
X0182508Y0032587D01*
X0182405Y0032695D01*
X0182304Y0032806D01*
X0182207Y0032920D01*
X0182113Y0033036D01*
X0182022Y0033154D01*
X0181934Y0033275D01*
X0181849Y0033398D01*
X0181768Y0033524D01*
X0181690Y0033651D01*
X0181616Y0033781D01*
X0181545Y0033912D01*
X0181478Y0034046D01*
X0181414Y0034181D01*
X0181354Y0034318D01*
X0181297Y0034456D01*
X0181244Y0034596D01*
X0181195Y0034737D01*
X0181150Y0034880D01*
X0181109Y0035023D01*
X0181071Y0035168D01*
X0181037Y0035313D01*
X0181008Y0035460D01*
X0180982Y0035607D01*
X0180960Y0035755D01*
X0180942Y0035903D01*
X0180928Y0036052D01*
X0180918Y0036201D01*
X0180912Y0036351D01*
X0180910Y0036500D01*
X0106500Y0006500D02*
X0106500Y0001500D01*
X0091500Y0001500D01*
X0091500Y0006500D01*
X0106500Y0006500D01*
D13*
X0126205Y0034000D02*
X0014000Y0034000D01*
X0014000Y0049748D01*
X0017937Y0053685D01*
X0126205Y0053685D01*
X0126205Y0034000D01*
X0136750Y0040167D02*
X0137667Y0039250D01*
X0139502Y0039250D01*
X0140420Y0040167D01*
X0136750Y0040167D02*
X0136750Y0043837D01*
X0137667Y0044755D01*
X0139502Y0044755D01*
X0140420Y0043837D01*
X0144250Y0043837D02*
X0145167Y0044755D01*
X0147002Y0044755D01*
X0147920Y0043837D01*
X0147920Y0042920D01*
X0144250Y0039250D01*
X0147920Y0039250D01*
X0147920Y0048250D02*
X0144250Y0048250D01*
X0147920Y0051920D01*
X0147920Y0052837D01*
X0147002Y0053755D01*
X0145167Y0053755D01*
X0144250Y0052837D01*
X0140420Y0052837D02*
X0139502Y0053755D01*
X0137667Y0053755D01*
X0136750Y0052837D01*
X0136750Y0051920D01*
X0137667Y0051002D01*
X0139502Y0051002D01*
X0140420Y0050085D01*
X0140420Y0049167D01*
X0139502Y0048250D01*
X0137667Y0048250D01*
X0136750Y0049167D01*
X0136750Y0057250D02*
X0139502Y0057250D01*
X0140420Y0058167D01*
X0140420Y0059085D01*
X0139502Y0060002D01*
X0136750Y0060002D01*
X0139502Y0060002D02*
X0140420Y0060920D01*
X0140420Y0061837D01*
X0139502Y0062755D01*
X0136750Y0062755D01*
X0136750Y0057250D01*
X0144250Y0058167D02*
X0145167Y0057250D01*
X0147002Y0057250D01*
X0147920Y0058167D01*
X0147920Y0061837D01*
X0144250Y0058167D01*
X0144250Y0061837D01*
X0145167Y0062755D01*
X0147002Y0062755D01*
X0147920Y0061837D01*
X0147920Y0066250D02*
X0144250Y0066250D01*
X0147920Y0069920D01*
X0147920Y0070837D01*
X0147002Y0071755D01*
X0145167Y0071755D01*
X0144250Y0070837D01*
X0140420Y0070837D02*
X0140420Y0069002D01*
X0139502Y0068085D01*
X0136750Y0068085D01*
X0138585Y0068085D02*
X0140420Y0066250D01*
X0136750Y0066250D02*
X0136750Y0071755D01*
X0139502Y0071755D01*
X0140420Y0070837D01*
X0126205Y0078685D02*
X0126205Y0059000D01*
X0014000Y0059000D01*
X0014000Y0074748D01*
X0017937Y0078685D01*
X0126205Y0078685D01*
X0187250Y0024003D02*
X0188001Y0024754D01*
X0189502Y0024754D01*
X0190253Y0024003D01*
X0190253Y0023253D01*
X0189502Y0022502D01*
X0190253Y0021751D01*
X0190253Y0021001D01*
X0189502Y0020250D01*
X0188001Y0020250D01*
X0187250Y0021001D01*
X0188751Y0022502D02*
X0189502Y0022502D01*
X0191854Y0022502D02*
X0194856Y0022502D01*
X0194106Y0024754D02*
X0191854Y0022502D01*
X0194106Y0020250D02*
X0194106Y0024754D01*
X0194106Y0014754D02*
X0192605Y0014754D01*
X0191854Y0014003D01*
X0190253Y0014003D02*
X0190253Y0013253D01*
X0189502Y0012502D01*
X0190253Y0011751D01*
X0190253Y0011001D01*
X0189502Y0010250D01*
X0188001Y0010250D01*
X0187250Y0011001D01*
X0188751Y0012502D02*
X0189502Y0012502D01*
X0190253Y0014003D02*
X0189502Y0014754D01*
X0188001Y0014754D01*
X0187250Y0014003D01*
X0193355Y0012502D02*
X0194106Y0012502D01*
X0194856Y0011751D01*
X0194856Y0011001D01*
X0194106Y0010250D01*
X0192605Y0010250D01*
X0191854Y0011001D01*
X0194106Y0012502D02*
X0194856Y0013253D01*
X0194856Y0014003D01*
X0194106Y0014754D01*
X0010253Y0010250D02*
X0007250Y0010250D01*
X0008751Y0010250D02*
X0008751Y0014754D01*
X0007250Y0013253D01*
X0007250Y0020250D02*
X0010253Y0023253D01*
X0010253Y0024003D01*
X0009502Y0024754D01*
X0008001Y0024754D01*
X0007250Y0024003D01*
X0007250Y0020250D02*
X0010253Y0020250D01*
D14*
X0014000Y0008000D02*
X0015500Y0006500D01*
X0022500Y0006500D01*
X0024000Y0008000D01*
X0025500Y0006500D01*
X0032500Y0006500D01*
X0034000Y0008000D01*
X0035500Y0006500D01*
X0042500Y0006500D01*
X0044000Y0008000D01*
X0045500Y0006500D01*
X0052500Y0006500D01*
X0054000Y0008000D01*
X0055500Y0006500D01*
X0062500Y0006500D01*
X0064000Y0008000D01*
X0065500Y0006500D01*
X0072500Y0006500D01*
X0074000Y0008000D01*
X0075500Y0006500D01*
X0082500Y0006500D01*
X0084000Y0008000D01*
X0085500Y0006500D01*
X0092500Y0006500D01*
X0094000Y0008000D01*
X0095500Y0006500D01*
X0102500Y0006500D01*
X0104000Y0008000D01*
X0105500Y0006500D01*
X0112500Y0006500D01*
X0114000Y0008000D01*
X0115500Y0006500D01*
X0122500Y0006500D01*
X0124000Y0008000D01*
X0125500Y0006500D01*
X0132500Y0006500D01*
X0134000Y0008000D01*
X0135500Y0006500D01*
X0142500Y0006500D01*
X0144000Y0008000D01*
X0145500Y0006500D01*
X0152500Y0006500D01*
X0154000Y0008000D01*
X0155500Y0006500D01*
X0162500Y0006500D01*
X0164000Y0008000D01*
X0165500Y0006500D01*
X0172500Y0006500D01*
X0174000Y0008000D01*
X0175500Y0006500D01*
X0182500Y0006500D01*
X0184000Y0008000D01*
X0184000Y0025000D01*
X0182500Y0026500D01*
X0175500Y0026500D01*
X0174000Y0025000D01*
X0172500Y0026500D01*
X0165500Y0026500D01*
X0164000Y0025000D01*
X0162500Y0026500D01*
X0155500Y0026500D01*
X0154000Y0025000D01*
X0152500Y0026500D01*
X0145500Y0026500D01*
X0144000Y0025000D01*
X0142500Y0026500D01*
X0135500Y0026500D01*
X0134000Y0025000D01*
X0132500Y0026500D01*
X0125500Y0026500D01*
X0124000Y0025000D01*
X0122500Y0026500D01*
X0115500Y0026500D01*
X0114000Y0025000D01*
X0112500Y0026500D01*
X0105500Y0026500D01*
X0104000Y0025000D01*
X0102500Y0026500D01*
X0095500Y0026500D01*
X0094000Y0025000D01*
X0092500Y0026500D01*
X0085500Y0026500D01*
X0084000Y0025000D01*
X0082500Y0026500D01*
X0075500Y0026500D01*
X0074000Y0025000D01*
X0072500Y0026500D01*
X0065500Y0026500D01*
X0064000Y0025000D01*
X0062500Y0026500D01*
X0055500Y0026500D01*
X0054000Y0025000D01*
X0052500Y0026500D01*
X0045500Y0026500D01*
X0044000Y0025000D01*
X0042500Y0026500D01*
X0035500Y0026500D01*
X0034000Y0025000D01*
X0032500Y0026500D01*
X0025500Y0026500D01*
X0024000Y0025000D01*
X0022500Y0026500D01*
X0015500Y0026500D01*
X0014000Y0025000D01*
X0014000Y0008000D01*
X0184300Y0033300D02*
X0186435Y0035435D01*
X0188570Y0033300D01*
X0188570Y0039705D01*
X0184300Y0039705D02*
X0184300Y0033300D01*
D15*
X0166500Y0036500D02*
X0161500Y0036500D01*
X0161500Y0076500D02*
X0166500Y0076500D01*
M02*
