%
M48
M72
T01C0.0236
T02C0.0315
T03C0.0360
T04C0.0440
%
T01
X650Y3150
X1900Y5650
X9400Y2650
X14900Y4400
X19400Y6650
X19400Y7150
X19400Y7650
T02
X11833Y7278
X11046Y7278
X10258Y7278
X9471Y7278
X8683Y7278
X7896Y7278
X7109Y7278
X6321Y7278
X5534Y7278
X4746Y7278
X3959Y7278
X3172Y7278
X2384Y7278
X1991Y6491
X2778Y6491
X3565Y6491
X4353Y6491
X5140Y6491
X5928Y6491
X6715Y6491
X7502Y6491
X8290Y6491
X9077Y6491
X9865Y6491
X10652Y6491
X11439Y6491
X11046Y4778
X11833Y4778
X10258Y4778
X9471Y4778
X8683Y4778
X7896Y4778
X7109Y4778
X6321Y4778
X5534Y4778
X4746Y4778
X3959Y4778
X3172Y4778
X2384Y4778
X1991Y3991
X2778Y3991
X3565Y3991
X4353Y3991
X5140Y3991
X5928Y3991
X6715Y3991
X7502Y3991
X8290Y3991
X9077Y3991
X9865Y3991
X10652Y3991
X11439Y3991
T03
X1900Y1150
X2900Y1150
X3900Y1150
X4900Y1150
X5900Y1150
X6900Y1150
X7900Y1150
X8900Y1150
X9900Y1150
X10900Y1150
X11900Y1150
X12900Y1150
X13900Y1150
X14900Y1150
X15900Y1150
X16900Y1150
X17900Y1150
X17900Y2150
X16900Y2150
X15900Y2150
X14900Y2150
X13900Y2150
X12900Y2150
X11900Y2150
X10900Y2150
X9900Y2150
X8900Y2150
X7900Y2150
X6900Y2150
X5900Y2150
X4900Y2150
X3900Y2150
X2900Y2150
X1900Y2150
T04
X16400Y4150
X16400Y5150
X16400Y6150
X16400Y7150
M30
