G75*
%MOIN*%
%OFA0B0*%
%FSLAX25Y25*%
%IPPOS*%
%LPD*%
%AMOC8*
5,1,8,0,0,1.08239X$1,22.5*
%
%ADD10OC8,0.06400*%
%ADD11C,0.08200*%
%ADD12C,0.05950*%
D10*
X0019000Y0011500D03*
X0029000Y0011500D03*
X0039000Y0011500D03*
X0049000Y0011500D03*
X0059000Y0011500D03*
X0069000Y0011500D03*
X0079000Y0011500D03*
X0089000Y0011500D03*
X0099000Y0011500D03*
X0109000Y0011500D03*
X0119000Y0011500D03*
X0129000Y0011500D03*
X0139000Y0011500D03*
X0149000Y0011500D03*
X0159000Y0011500D03*
X0169000Y0011500D03*
X0179000Y0011500D03*
X0179000Y0021500D03*
X0169000Y0021500D03*
X0159000Y0021500D03*
X0149000Y0021500D03*
X0139000Y0021500D03*
X0129000Y0021500D03*
X0119000Y0021500D03*
X0109000Y0021500D03*
X0099000Y0021500D03*
X0089000Y0021500D03*
X0079000Y0021500D03*
X0069000Y0021500D03*
X0059000Y0021500D03*
X0049000Y0021500D03*
X0039000Y0021500D03*
X0029000Y0021500D03*
X0019000Y0021500D03*
D11*
X0160300Y0041500D02*
X0167700Y0041500D01*
X0167700Y0051500D02*
X0160300Y0051500D01*
X0160300Y0061500D02*
X0167700Y0061500D01*
X0167700Y0071500D02*
X0160300Y0071500D01*
D12*
X0118331Y0072780D03*
X0110457Y0072780D03*
X0102583Y0072780D03*
X0094709Y0072780D03*
X0086835Y0072780D03*
X0078961Y0072780D03*
X0071087Y0072780D03*
X0063213Y0072780D03*
X0055339Y0072780D03*
X0047465Y0072780D03*
X0039591Y0072780D03*
X0031717Y0072780D03*
X0023843Y0072780D03*
X0027780Y0064906D03*
X0035654Y0064906D03*
X0043528Y0064906D03*
X0051402Y0064906D03*
X0059276Y0064906D03*
X0067150Y0064906D03*
X0075024Y0064906D03*
X0082898Y0064906D03*
X0090772Y0064906D03*
X0098646Y0064906D03*
X0106520Y0064906D03*
X0114394Y0064906D03*
X0118331Y0047780D03*
X0110457Y0047780D03*
X0102583Y0047780D03*
X0094709Y0047780D03*
X0086835Y0047780D03*
X0078961Y0047780D03*
X0071087Y0047780D03*
X0063213Y0047780D03*
X0055339Y0047780D03*
X0047465Y0047780D03*
X0039591Y0047780D03*
X0031717Y0047780D03*
X0023843Y0047780D03*
X0027780Y0039906D03*
X0035654Y0039906D03*
X0043528Y0039906D03*
X0051402Y0039906D03*
X0059276Y0039906D03*
X0067150Y0039906D03*
X0075024Y0039906D03*
X0082898Y0039906D03*
X0090772Y0039906D03*
X0098646Y0039906D03*
X0106520Y0039906D03*
X0114394Y0039906D03*
X0019906Y0039906D03*
X0019906Y0064906D03*
M02*
