G75*
%MOIN*%
%OFA0B0*%
%FSLAX25Y25*%
%IPPOS*%
%LPD*%
%AMOC8*
5,1,8,0,0,1.08239X$1,22.5*
%
%ADD10OC8,0.05600*%
%ADD11C,0.07400*%
%ADD12C,0.05150*%
%ADD13C,0.05000*%
%ADD14R,0.03962X0.03962*%
%ADD15C,0.02000*%
%ADD16C,0.03962*%
D10*
X0019000Y0011500D03*
X0029000Y0011500D03*
X0039000Y0011500D03*
X0049000Y0011500D03*
X0059000Y0011500D03*
X0069000Y0011500D03*
X0079000Y0011500D03*
X0089000Y0011500D03*
X0099000Y0011500D03*
X0109000Y0011500D03*
X0119000Y0011500D03*
X0129000Y0011500D03*
X0139000Y0011500D03*
X0149000Y0011500D03*
X0159000Y0011500D03*
X0169000Y0011500D03*
X0179000Y0011500D03*
X0179000Y0021500D03*
X0169000Y0021500D03*
X0159000Y0021500D03*
X0149000Y0021500D03*
X0139000Y0021500D03*
X0129000Y0021500D03*
X0119000Y0021500D03*
X0109000Y0021500D03*
X0099000Y0021500D03*
X0089000Y0021500D03*
X0079000Y0021500D03*
X0069000Y0021500D03*
X0059000Y0021500D03*
X0049000Y0021500D03*
X0039000Y0021500D03*
X0029000Y0021500D03*
X0019000Y0021500D03*
D11*
X0160300Y0041500D02*
X0167700Y0041500D01*
X0167700Y0051500D02*
X0160300Y0051500D01*
X0160300Y0061500D02*
X0167700Y0061500D01*
X0167700Y0071500D02*
X0160300Y0071500D01*
D12*
X0118331Y0072780D03*
X0110457Y0072780D03*
X0102583Y0072780D03*
X0094709Y0072780D03*
X0086835Y0072780D03*
X0078961Y0072780D03*
X0071087Y0072780D03*
X0063213Y0072780D03*
X0055339Y0072780D03*
X0047465Y0072780D03*
X0039591Y0072780D03*
X0031717Y0072780D03*
X0023843Y0072780D03*
X0027780Y0064906D03*
X0035654Y0064906D03*
X0043528Y0064906D03*
X0051402Y0064906D03*
X0059276Y0064906D03*
X0067150Y0064906D03*
X0075024Y0064906D03*
X0082898Y0064906D03*
X0090772Y0064906D03*
X0098646Y0064906D03*
X0106520Y0064906D03*
X0114394Y0064906D03*
X0118331Y0047780D03*
X0110457Y0047780D03*
X0102583Y0047780D03*
X0094709Y0047780D03*
X0086835Y0047780D03*
X0078961Y0047780D03*
X0071087Y0047780D03*
X0063213Y0047780D03*
X0055339Y0047780D03*
X0047465Y0047780D03*
X0039591Y0047780D03*
X0031717Y0047780D03*
X0023843Y0047780D03*
X0027780Y0039906D03*
X0035654Y0039906D03*
X0043528Y0039906D03*
X0051402Y0039906D03*
X0059276Y0039906D03*
X0067150Y0039906D03*
X0075024Y0039906D03*
X0082898Y0039906D03*
X0090772Y0039906D03*
X0098646Y0039906D03*
X0106520Y0039906D03*
X0114394Y0039906D03*
X0019906Y0039906D03*
X0019906Y0064906D03*
D13*
X0164000Y0071500D02*
X0194000Y0071500D01*
X0194000Y0076500D01*
X0194000Y0071500D02*
X0194000Y0066500D01*
D14*
X0194000Y0066500D03*
X0194000Y0071500D03*
X0194000Y0076500D03*
D15*
X0016500Y0006500D02*
X0011500Y0011500D01*
X0011500Y0049000D01*
X0019000Y0056500D01*
X0023843Y0047780D02*
X0023843Y0031657D01*
X0024000Y0031500D01*
X0026500Y0029000D01*
X0041500Y0029000D01*
X0049000Y0021500D01*
X0059000Y0021500D02*
X0046500Y0034000D01*
X0034000Y0034000D01*
X0031717Y0036283D01*
X0031717Y0047780D01*
X0023843Y0047780D02*
X0023843Y0072780D01*
X0026500Y0079000D02*
X0031717Y0073783D01*
X0031717Y0072780D01*
X0026500Y0079000D02*
X0011500Y0079000D01*
X0006500Y0074000D01*
X0006500Y0031500D01*
X0047465Y0047780D02*
X0047465Y0072780D01*
X0053685Y0079000D01*
X0121500Y0079000D01*
X0126500Y0074000D01*
X0126500Y0046500D01*
X0129000Y0044000D01*
X0149000Y0044000D01*
X0151500Y0039000D02*
X0121500Y0039000D01*
X0118331Y0042169D01*
X0118331Y0047780D01*
X0118331Y0072780D01*
X0110457Y0072780D02*
X0110457Y0047780D01*
X0110457Y0037543D01*
X0114000Y0034000D01*
X0146500Y0034000D01*
X0159000Y0021500D01*
X0149000Y0021500D02*
X0141500Y0029000D01*
X0109000Y0029000D01*
X0102583Y0035417D01*
X0102583Y0047780D01*
X0102583Y0072780D01*
X0094709Y0072780D02*
X0094709Y0047780D01*
X0086835Y0047780D02*
X0086835Y0033665D01*
X0089000Y0031500D01*
X0096500Y0031500D01*
X0104000Y0024000D01*
X0104000Y0019000D01*
X0106500Y0016500D01*
X0124000Y0016500D01*
X0129000Y0021500D01*
X0134000Y0016500D02*
X0139000Y0021500D01*
X0134000Y0016500D02*
X0134000Y0009000D01*
X0131500Y0006500D01*
X0016500Y0006500D01*
X0063213Y0037287D02*
X0074000Y0026500D01*
X0074000Y0019000D01*
X0076500Y0016500D01*
X0094000Y0016500D01*
X0099000Y0021500D01*
X0094000Y0026500D02*
X0081500Y0026500D01*
X0071087Y0036913D01*
X0071087Y0047780D01*
X0071087Y0072780D01*
X0078961Y0072780D02*
X0078961Y0047780D01*
X0086835Y0047780D02*
X0086835Y0072780D01*
X0063213Y0072780D02*
X0063213Y0047780D01*
X0063213Y0037287D01*
X0055339Y0047780D02*
X0055339Y0072780D01*
X0151500Y0039000D02*
X0169000Y0021500D01*
D16*
X0149000Y0044000D03*
X0094000Y0026500D03*
X0019000Y0056500D03*
X0006500Y0031500D03*
M02*
